<?xml version="1.0" encoding="utf-8"?>
<!-- Generator: Adobe Illustrator 16.0.3, SVG Export Plug-In . SVG Version: 6.00 Build 0)  -->
<!DOCTYPE svg PUBLIC "-//W3C//DTD SVG 1.1//EN" "http://www.w3.org/Graphics/SVG/1.1/DTD/svg11.dtd">
<svg version="1.1" id="Layer_1" xmlns="http://www.w3.org/2000/svg" xmlns:xlink="http://www.w3.org/1999/xlink" x="0px" y="0px"
	 width="281.8px" height="291.416px" viewBox="0 0 281.8 291.416" enable-background="new 0 0 281.8 291.416" xml:space="preserve">
<g>
	<g>
		<path fill-rule="evenodd" clip-rule="evenodd" fill="#FFFFFF" d="M123.85,5.016c6.167,3.867,10.8,9.85,13.9,17.95
			c1-0.1,2.033-0.15,3.1-0.15c37,0,68.6,13.117,94.8,39.35c26.2,26.2,39.3,57.883,39.3,95.05c0,37.066-13.1,68.666-39.3,94.8
			c-26.2,26.267-57.8,39.4-94.8,39.4s-68.65-13.134-94.95-39.4c-26.133-26.134-39.2-57.733-39.2-94.8
			c0-37.167,13.067-68.85,39.2-95.05c12.733-12.667,26.65-22.267,41.75-28.8c0.1-5.8,0.833-11.167,2.2-16.1
			c1.533-6.233,4.583-10.933,9.15-14.1C106.167-1.601,114.45-0.984,123.85,5.016z"/>
	</g>
	<g>
		<path fill-rule="evenodd" clip-rule="evenodd" fill="#00843C" d="M253.1,133.616h-5.3l3.25,4.5l-1.65,5.2l5.2-1.6l4.399,3v-5.45
			l4.4-3.25l-5.2-1.85l-1.85-4.95L253.1,133.616z M259,170.466l-4.399,3.05l-5.2-1.85l1.65,5.399l-3.25,4.3l-3.601-1.149
			c1.634-7.634,2.45-15.2,2.45-22.7c0-28.2-9.717-52.517-29.15-72.95c-19.333-20.333-43-31.233-71-32.7
			c0.233-8.867-0.733-16.7-2.899-23.5c35.1,0.867,64.866,13.783,89.3,38.75c24.566,25.133,36.85,55.267,36.85,90.4
			c0,10.667-1.116,20.583-3.35,29.75h-0.2l-9.149-3.25l1.149-3.25l5.2-1.6l-4.4-3.351V170.466z M254.4,183.315l-6.5-1.95l5.2,0.101
			L254.4,183.315z M85.1,50.466c0.866,5.466,1.833,10.6,2.9,15.4c-16.034,9.3-28.75,21.967-38.15,38
			c-9.8,16.5-14.7,34.383-14.7,53.65c0,7.5,0.817,15.066,2.45,22.7l-3.45,1.149l-3.25-4.3l1.5-5.399l-5.1,1.85l-4.5-3.05v5.35
			l-4.3,3.351l5.2,1.6l1.05,3.25l-9.1,3.25H15.4c-2.233-9.167-3.35-19.083-3.35-29.75c0-25.1,6.7-48.183,20.1-69.25
			c12.967-20.567,30.383-36.167,52.25-46.8L85.1,50.466z M70.8,61.565l-4.9,2.65l-4.95-2.05l1.25,5.3l-3.55,4.15l5.3,0.6l2.9,4.6
			l2.3-5.05l5.2-1.2l-4.15-3.55L70.8,61.565z M219.6,67.466l1.25-5.3l-4.95,2.05l-4.85-2.65l0.55,5.45l-4.15,3.55l5.2,1.2l2.3,5.05
			l2.9-4.6l5.3-0.6L219.6,67.466z M183.5,40.516l-4.149,3.6l-5.3-0.8l2.3,4.95l-2.55,4.85l5.3-0.7l3.85,3.95l1.05-5.45l4.851-2.3
			l-4.65-2.65L183.5,40.516z M62.9,92.116l21.2,16.65l-0.95,1.35L62.9,92.116z M25.45,129.216l-1.75,4.95l-5.2,1.85l4.3,3.25v5.45
			l4.5-3l5.1,1.6l-1.5-5.2l3.25-4.5H28.7L25.45,129.216z M44.05,101.565l4.75-2.9l-5.3-2.2l-1.4-5.2l-3.35,4.2l-5.55-0.25l3,4.75
			l-1.95,4.95l5.45-1.15l4,3.35L44.05,101.565z M45.1,122.716l28.35,9.25l-0.35,1.85L45.1,122.716z M77.25,121.565l-24.5-15
			l25.2,13.65L77.25,121.565z M70.2,158.365l-31.1-0.85l31.1-0.9V158.365z M70.8,145.966l-30.1-6l30.3,4.3L70.8,145.966z
			 M71.45,170.815l-30.75,4.4l30.45-6.25L71.45,170.815z M27.4,183.315l1.3-1.85l5.2-0.101L27.4,183.315z M72.85,200.216
			c-0.134-2.167,0.25-3.783,1.15-4.851c0.933-1.566,2.25-2.416,3.95-2.55c1.534-0.3,3.034,0.117,4.5,1.25
			c1.167,0.867,1.934,2.3,2.3,4.3c0.233,2.067-0.1,3.767-1,5.101c-1.1,1.533-2.417,2.366-3.95,2.5
			c-1.867,0.233-3.367-0.184-4.5-1.25C73.833,203.482,73.017,201.982,72.85,200.216z M51.1,209.916
			c-1.233-0.834-2.15-2.301-2.75-4.4c-0.3-2-0.034-3.733,0.8-5.2c0.933-1.399,2.167-2.283,3.7-2.649
			c1.533-0.467,3.033-0.233,4.5,0.699c1.4,1.067,2.3,2.534,2.7,4.4c0.367,1.833,0.167,3.517-0.6,5.05
			c-0.933,1.634-2.167,2.601-3.7,2.9C54.216,211.115,52.667,210.849,51.1,209.916z M83.5,225.416l1.25-0.25l-9.35,10.55
			L83.5,225.416z M66.85,238.266l-2.9,4.6l-5.3,0.601l3.55,4.05l-1.25,5.4l4.95-2.2l4.9,2.899l-0.6-5.55l4.15-3.6l-5.2-1.25
			L66.85,238.266z M63.25,229.365c9.966,10.7,21.5,19.017,34.6,24.95c13.566,6.101,27.9,9.15,43,9.15c15.1,0,29.55-3.05,43.35-9.15
			c13.101-5.934,24.55-14.25,34.351-24.95c7.166,1.601,15.416,3.834,24.75,6.7c-12.101,15.634-26.9,27.917-44.4,36.851
			c-18.134,9.1-37.483,13.649-58.05,13.649c-20.434,0-39.75-4.55-57.95-13.649c-17.5-8.934-32.3-21.217-44.4-36.851
			C47.833,233.199,56.083,230.966,63.25,229.365z M214.15,114.666l15.05-8.1l-14.35,8.75L214.15,114.666z M233.1,98.666l4.649,2.9
			l0.351,5.55l4.149-3.35l5.301,1.15l-1.95-4.95l3.1-4.75l-5.649,0.25l-3.351-4.2l-1.5,5.2L233.1,98.666z M173.45,99.016l18.4-29.7
			l-16.3,30.05L173.45,99.016z M186.85,101.366l19.55-21.85l-17.7,22.2L186.85,101.366z M201.2,106.065l17.7-13.95l-16.4,14.65
			L201.2,106.065z M236.6,122.716l-11.45,4.4l-0.35-0.45L236.6,122.716z M209.75,120.766c9.967,8.933,18.45,23.617,25.45,44.05
			c-29.366-16.5-50.184-22.233-62.45-17.2c-6.399,3.767-11.449,6.534-15.149,8.301c-6.533,3.233-14.05,4.55-22.55,3.949
			c-9.1-11.333-14.533-17.966-16.3-19.899c-1.767-2.167-5.233-5.6-10.4-10.3c2.4-12.267,5.3-21.316,8.7-27.15
			c0.9-1.7,6.567-9.3,17-22.8c5.367,11.333,12.65,18.933,21.85,22.8c2,0.833,10.783,2.633,26.35,5.4
			C193.583,110.149,202.75,114.432,209.75,120.766z M151.6,91.166l6.95-34l-5.2,35.4L151.6,91.166z M162.35,96.716H162l13.75-35.05
			l-11.8,35.5L162.35,96.716z M90.8,99.016l-15.4-19.5l16.55,18.5L90.8,99.016z M98.2,191.766c1.067-1.3,2.417-2,4.05-2.1
			c1.667-0.301,3.117,0.166,4.35,1.399c1.333,1.066,2.066,2.533,2.2,4.4c0.1,1.833-0.316,3.533-1.25,5.1
			c-1.066,1.134-2.45,1.867-4.15,2.2c-1.767,0.233-3.267-0.267-4.5-1.5c-1.1-1.1-1.767-2.65-2-4.65
			C96.667,194.683,97.1,193.065,98.2,191.766z M154.25,199.065c-1.466,1.233-2.883,1.851-4.25,1.851c-1.933-0.233-3.366-0.9-4.3-2
			c-1.066-1.467-1.6-3.15-1.6-5.051c0-1.633,0.566-3.183,1.7-4.649c1.166-1.3,2.6-1.884,4.3-1.75c1.7,0,3.166,0.583,4.399,1.75
			c1,1.399,1.5,3.017,1.5,4.85C155.933,196.232,155.35,197.899,154.25,199.065z M98.9,170.815c-7.733-33.966-2.533-58.55,15.6-73.75
			c-12.333,26.434-15.8,51.017-10.4,73.75H98.9z M118.75,221.466l-12.7,31.8l10.65-31.55L118.75,221.466z M102.7,262.516l-3.8-3.9
			l-1.05,5.4l-4.85,2.3l4.6,2.7l0.8,5.55l4.05-3.7l5.45,1l-2.3-4.949l2.4-4.851L102.7,262.516z M102.25,222.766l2.05-0.15
			l-14.35,23.15L102.25,222.766z M151,221.016h2.2l5.351,36.9L151,221.016z M140.85,259.516l-1.05-38.75h2.3L140.85,259.516z
			 M130.8,221.016l-7.55,36.9l5.45-36.9H130.8z M234.75,205.966c-0.399,1.8-1.25,3.267-2.55,4.399
			c-1.533,0.934-3.083,1.25-4.649,0.95c-1.7-0.399-2.967-1.366-3.801-2.899c-0.833-1.4-1.066-3.051-0.699-4.95
			c0.3-1.934,1.183-3.4,2.649-4.4c1.334-1,2.834-1.35,4.5-1.05c1.7,0.6,2.983,1.566,3.851,2.9
			C234.817,202.216,235.05,203.899,234.75,205.966z M179.45,222.766l12.4,23l-14.351-23.15L179.45,222.766z M184,264.016l-1.05-5.4
			l-3.85,3.9l-5.3-0.45l2.55,4.851l-2.3,4.949l5.3-1l4.149,3.7l0.7-5.55l4.65-2.7L184,264.016z M175.75,253.266l-12.699-31.8
			l2.1,0.25L175.75,253.266z M148.85,276.166l-3.95-3.7l0.9-5.55l-4.95,2.449l-4.85-2.449l0.9,5.55l-4.05,3.7l5.45,0.949l2.55,4.851
			l2.649-4.851L148.85,276.166z M217.85,242.865l-2.9-4.6l-2.3,4.95l-5.2,1.25l4.15,3.6l-0.55,5.55l4.85-2.899l4.95,2.2l-1.25-5.4
			l3.55-4.05L217.85,242.865z"/>
		<g>
			<polygon fill-rule="evenodd" clip-rule="evenodd" fill="#FFFFFF" points="281.8,220.216 264.7,239.416 269.55,268.315 
				233.8,252.466 244,241.016 261.35,213.266 			"/>
		</g>
		<g>
			<path fill-rule="evenodd" clip-rule="evenodd" fill="#00843C" d="M263.75,209.115l14.45,5.101l-17.2,19.05l4.851,28.9
				l-29.75-13.15c3.7-3.934,6.983-7.833,9.85-11.7l10.05,3.351L263.75,209.115z"/>
		</g>
		<g>
			<polygon fill-rule="evenodd" clip-rule="evenodd" fill="#FFFFFF" points="37.95,241.016 48.1,252.466 12.4,268.315 
				17.25,239.416 0,220.216 20.5,213.266 			"/>
		</g>
		<g>
			<path fill-rule="evenodd" clip-rule="evenodd" fill="#00843C" d="M18.5,209.016l7.55,31.65l9.8-3.25
				c4.233,5.333,7.517,9.199,9.85,11.6l-29.75,13.15l4.9-28.9L3.6,214.216L18.5,209.016z"/>
		</g>
		<g>
			<path fill-rule="evenodd" clip-rule="evenodd" fill="#00843C" d="M108.8,13.565c-9.233,2.333-12.767,14.017-10.6,35.05
				c2,19.667,5.817,32.2,11.45,37.6c-5.633,0.466-10.45-7.217-14.45-23.05c-4.033-15.633-4.583-29.083-1.65-40.35
				c1.3-5.767,3.967-10.083,8-12.95c6.233-4.367,13.467-3.817,21.7,1.65c5.4,3.6,9.417,9.1,12.05,16.5
				c3.067,8.267,4.15,18.183,3.25,29.75c-1.333,7.7-4.033,13.983-8.1,18.85c-2.4,3.167-6.867,7.133-13.4,11.9
				c-13.433,9.867-23.117,22.5-29.05,37.9c-5.7,14.9-7.2,29.867-4.5,44.9l-4.3,0.351c-3.133-15.267-1.733-30.351,4.2-45.25
				c6.167-15.633,16.45-28.8,30.85-39.5c6.233-4.566,10.783-10.283,13.65-17.15l0.6-1.5c0.6-1.7,1.133-3.467,1.6-5.3
				c1.767-8.1,1.566-17-0.6-26.7c-1.9-8.333-4.867-14.55-8.9-18.65C116.767,13.782,112.833,12.432,108.8,13.565z"/>
		</g>
		<g>
			<path fill-rule="evenodd" clip-rule="evenodd" fill="#00843C" d="M247.1,210.716c0.7-3.167,1.467-5.167,2.3-6
				c0.7-1,1.517-1.384,2.45-1.15l1.25,0.9l2.899-4.25c-0.699-0.634-1.35-1.017-1.949-1.15c-0.867-0.233-1.834-0.166-2.9,0.2
				c-0.934,0.4-1.816,1.066-2.65,2l0.7-2.9l-4.399-1.3l-5.45,22.351l5.45,1.25L247.1,210.716z M254.15,237.065
				c-34.434-12.533-72.116-18.8-113.05-18.8c-41.1,0-78.95,6.267-113.55,18.8L16.3,189.666c36.767-13.167,78.367-19.75,124.8-19.75
				c46.166,0,87.633,6.583,124.399,19.75L254.15,237.065z M177.15,184.016c-2.233-0.066-4.384,0.283-6.45,1.05
				c-2.1,1-3.649,2.351-4.649,4.05c-1.167,1.767-1.867,3.733-2.101,5.9c-0.366,3.066,0.45,5.917,2.45,8.55
				c2.066,2.533,4.95,3.95,8.65,4.25c4.267,0.4,7.75-0.833,10.449-3.7l-4.199-3.449c-1.467,1.699-3.434,2.399-5.9,2.1
				c-1.9-0.167-3.4-0.9-4.5-2.2c-1.134-1.333-1.6-3.033-1.4-5.1c0.233-2,0.967-3.55,2.2-4.65c1.233-1.066,2.934-1.517,5.101-1.35
				c0.699,0,1.666,0.233,2.899,0.7c1.066,0.767,1.834,1.5,2.3,2.199l4.851-2.199c-0.9-1.7-2.2-3.101-3.9-4.2
				C181.25,184.899,179.317,184.249,177.15,184.016z M205.95,206.466c0.767-1.167,1.467-3.867,2.101-8.101l1.35-9.5l-5.55-0.899
				l-1.351,11.1c-0.399,2.533-0.716,3.917-0.949,4.15c-0.301,0.833-0.834,1.45-1.601,1.85c-0.866,0.3-1.717,0.417-2.55,0.351
				c-0.767-0.167-1.467-0.517-2.1-1.051c-0.534-0.533-0.917-1.267-1.15-2.199c-0.066-0.467,0.017-1.967,0.25-4.5l1.35-10.75
				l-5.3-0.95l-1.25,9.5c-0.633,3.7-0.75,6.25-0.35,7.649c0.366,2.134,1.133,3.784,2.3,4.95c1.3,1.3,3.15,2.15,5.55,2.55
				c2.3,0.367,4.184,0.167,5.65-0.6C203.883,209.349,205.083,208.166,205.95,206.466z M222.35,194.416
				c-2.367,1.933-3.9,4.517-4.601,7.75c-0.633,3.633-0.166,6.683,1.4,9.149c1.667,2.7,3.816,4.316,6.45,4.851
				c1.066,0.3,2.267,0.333,3.6,0.1l3.55-1.6l-0.55,2.3l5.3,1.3l4.5-22.35l-5.399-1.15l-0.25,2.55c-1.233-1.533-2.15-2.533-2.75-3
				c-1.101-0.767-2.233-1.316-3.4-1.649C227.367,192.232,224.75,192.815,222.35,194.416z M219.6,181.916l-5.351-0.9l-5.399,31
				l5.399,1L219.6,181.916z M112.15,189.216c-1-1.601-2.5-2.917-4.5-3.95c-1.934-0.833-3.9-1.167-5.9-1
				c-2.833,0.233-5.25,1.467-7.25,3.7c-2.333,2.7-3.3,5.733-2.9,9.1c0.066,3.233,1.366,6.017,3.9,8.351
				c2.466,2.166,5.216,3.05,8.25,2.649c2-0.166,3.917-0.866,5.75-2.1c1.633-1.367,2.867-2.934,3.7-4.7
				c0.934-2.033,1.284-4.116,1.05-6.25C114.083,193.016,113.383,191.082,112.15,189.216z M134.35,184.716
				c-1.534-1.533-3.384-2.3-5.55-2.3c-0.833,0-1.833,0.233-3,0.699c-0.667,0.301-1.816,1.101-3.45,2.4v-2.4l-5.55,0.2l0.6,22.8
				l5.3-0.149v-13.851c0.367-1.166,0.9-2.25,1.6-3.25c0.633-0.6,1.6-1.017,2.9-1.25c0.7,0,1.434,0.267,2.2,0.801
				c0.467,0.466,0.85,1.116,1.15,1.949c0.3,1.167,0.45,3.017,0.45,5.551l0.15,9.85h5.4l-0.2-15.05
				C136.35,188.115,135.683,186.115,134.35,184.716z M161.45,182.966l-5.55-0.2v2.5c-0.866-0.9-1.95-1.667-3.25-2.3
				c-1.167-0.601-2.366-0.9-3.6-0.9c-2.834,0-5.267,1.066-7.301,3.2c-2.066,2.333-3.1,5.2-3.1,8.6c-0.067,3.233,0.9,6.117,2.9,8.65
				c1.933,2.167,4.366,3.366,7.3,3.6c1.366,0,2.517-0.233,3.45-0.699c0.699-0.233,1.783-0.967,3.25-2.2v2.3l5.3,0.25L161.45,182.966
				z M39.1,199.416c-1-0.801-2.267-1.384-3.8-1.75c-1.1-0.4-2.45-0.367-4.05,0.1c-1.934,0.533-3.434,1.616-4.5,3.25
				c-0.867,1.634-1.1,3.333-0.7,5.1c0.667,2.767,2.934,4.5,6.8,5.2l2.1,0.45c1.767,0.4,2.733,1.017,2.9,1.85
				c0.133,0.4,0.017,0.9-0.35,1.5c-0.467,0.467-1.017,0.733-1.65,0.801c-0.6,0.233-1.367,0.233-2.3,0
				c-0.633-0.067-1.517-0.483-2.65-1.25l-2.45,4.75c2.567,2,5.383,2.533,8.45,1.6c2.167-0.533,3.867-1.684,5.1-3.45
				c1-1.633,1.233-3.483,0.7-5.55c-0.4-1.566-1.133-2.684-2.2-3.35c-0.867-0.867-2.533-1.601-5-2.2l-2.05-0.351l-1.85-0.699
				c-0.4-0.167-0.6-0.4-0.6-0.7c-0.067-0.233,0.017-0.617,0.25-1.15l1.35-0.7c1.033-0.399,2.433-0.1,4.2,0.9L39.1,199.416z
				 M46.85,196.716l-0.6-2.3l-5.2,1.3l6.6,30.25l5.2-1.25l-2.3-10.5c1.467,0.899,2.733,1.434,3.8,1.6
				c1.167,0.233,2.366,0.15,3.6-0.25c2.7-0.666,4.784-2.316,6.25-4.95c1.534-2.633,1.917-5.683,1.15-9.149
				c-0.7-3.4-2.284-5.983-4.75-7.75c-2.467-1.601-5.05-2.05-7.75-1.351c-1.467,0.2-2.583,0.7-3.35,1.5
				C48.566,194.466,47.683,195.416,46.85,196.716z M77,187.466c-2.767,0.633-5.067,1.983-6.9,4.05c-2.167,2.934-3.017,6.1-2.55,9.5
				c0.367,3.3,1.867,5.967,4.5,8c2.4,2,5.133,2.717,8.2,2.15c1.933-0.134,3.783-0.9,5.55-2.301c1.7-1.366,2.9-3.066,3.6-5.1
				c0.833-2.134,1.066-4.167,0.7-6.1c-0.1-2-0.867-3.884-2.3-5.65c-1.167-1.566-2.717-2.85-4.65-3.85
				C81.383,187.466,79.333,187.232,77,187.466z"/>
		</g>
	</g>
</g>
</svg>
